<svg id="Capa_1" data-name="Capa 1" xmlns="http://www.w3.org/2000/svg" viewBox="0 0 260.92 52.67"><defs><style>.cls-1{fill:#4a7628;}.cls-2{fill:#e75300;}.cls-3{fill:#fff;}</style></defs><title>Logo SolDeLaredo</title><path class="cls-1" d="M70.4,15.7a17.52,17.52,0,0,1,5.91,1c0,2.32-1,3-1.89,3s-2.56-.51-4.55-.51-3.76.75-3.76,2.63c0,4.32,10.83,3.46,10.83,10.59,0,4.33-3.13,7.12-8.94,7.12a15.29,15.29,0,0,1-6.62-1.13c-.11-2.12.81-3,1.84-3s2.72.67,5,.67c2.72,0,4.27-1.13,4.27-2.9,0-4.95-10.71-3.59-10.71-10.93,0-3.77,3-6.49,8.61-6.49"/><path class="cls-1" d="M87.84,20.92c4.37,0,8.24,2.41,8.24,9.18,0,6.21-3.87,9.16-8.24,9.16s-8.22-2.39-8.22-9.16c0-6.21,3.81-9.18,8.22-9.18m0,14.78c2.08,0,4.08-1.66,4.08-5.59,0-4.28-2-5.58-4.08-5.58s-4.05,1.65-4.05,5.58c0,4.14,1.93,5.59,4.05,5.59"/><path class="cls-1" d="M103.73,38.94h-4V13.24a9.2,9.2,0,0,1,1.31-.12c2.28,0,2.73,1.08,2.73,2.57Z"/><path class="cls-1" d="M128.36,39.17a8.56,8.56,0,0,1-1.32.1c-1.65,0-2.33-.57-2.62-1.41a6.24,6.24,0,0,1-4.27,1.41c-3.47,0-7-2.72-7-8.55,0-6.42,3.54-9.79,8.33-9.79a9.72,9.72,0,0,1,2.78.41V13.24a9.5,9.5,0,0,1,1.3-.12c2.3,0,2.76,1.08,2.76,2.57Zm-4.05-14.3a8.89,8.89,0,0,0-2.34-.29c-3.08,0-4.72,1.88-4.72,5.53s1.82,5.54,4.33,5.54a5.74,5.74,0,0,0,2.74-.63Z"/><path class="cls-1" d="M132.35,30.39c0-5.93,3-9.47,7.8-9.47,4.21,0,7.17,2.41,7.17,8.85a15.63,15.63,0,0,1-.06,1.69H136.38c.29,3.1,2.33,4.24,5.75,4.24a13.36,13.36,0,0,0,4.38-.75,3.09,3.09,0,0,1,.29,1.37c0,1.93-2.05,2.95-5.86,2.95-5.76,0-8.59-3.25-8.59-8.87m11-2c.05-2.46-1.09-4.05-3.25-4.05-1.88,0-3.41,1.25-3.6,4.05Z"/><path class="cls-1" d="M158.37,38.94V15.8a9,9,0,0,1,1.38-.11c2.33,0,3,1.08,3,2.56v17.1c1.65-.35,4.2-.35,10.09-.35a10,10,0,0,1,.11,1.31c0,2.16-1.08,2.62-2.46,2.62Z"/><path class="cls-1" d="M190.18,39.17a8.61,8.61,0,0,1-1.31.1c-1.66,0-2.35-.57-2.62-1.41A6.24,6.24,0,0,1,182,39.26c-3.48,0-7-2.72-7-8.55C175,24,178.39,21,184.47,21a14.83,14.83,0,0,1,4,.5,2.2,2.2,0,0,1,1.73,2.12Zm-4.05-14.3a8.91,8.91,0,0,0-2.34-.29c-3.07,0-4.72,1.88-4.72,5.53s1.82,5.54,4.32,5.54a5.69,5.69,0,0,0,2.74-.63Z"/><path class="cls-1" d="M195.3,21a10,10,0,0,1,1.31-.13c1.75,0,2.44.7,2.61,1.66a6.33,6.33,0,0,1,4.17-1.66,3.89,3.89,0,0,1,1.58.3,3.19,3.19,0,0,1,.12,1,2.08,2.08,0,0,1-2.28,2.39,8.39,8.39,0,0,0-3.47.63V38.94h-4Z"/><path class="cls-1" d="M206.24,30.39c0-5.93,3-9.47,7.8-9.47,4.21,0,7.17,2.41,7.17,8.85,0,.56,0,1.07-.05,1.69H210.28c.28,3.1,2.33,4.24,5.75,4.24a13.53,13.53,0,0,0,4.39-.75,3.26,3.26,0,0,1,.29,1.37c0,1.93-2.06,2.95-5.87,2.95-5.77,0-8.6-3.25-8.6-8.87m11-2c.05-2.46-1.1-4.05-3.26-4.05-1.88,0-3.41,1.25-3.59,4.05Z"/><path class="cls-1" d="M239.21,39.17a8.23,8.23,0,0,1-1.29.1c-1.66,0-2.34-.57-2.62-1.41A6.25,6.25,0,0,1,231,39.26c-3.46,0-6.94-2.72-6.94-8.55,0-6.42,3.54-9.79,8.31-9.79a9.71,9.71,0,0,1,2.8.41V13.24a9.17,9.17,0,0,1,1.3-.12c2.3,0,2.74,1.08,2.74,2.57Zm-4-14.3a8.89,8.89,0,0,0-2.33-.29c-3.08,0-4.73,1.88-4.73,5.53s1.83,5.54,4.32,5.54a5.68,5.68,0,0,0,2.74-.63Z"/><path class="cls-1" d="M251.4,20.92c4.4,0,8.27,2.41,8.27,9.18,0,6.21-3.87,9.16-8.27,9.16s-8.2-2.39-8.2-9.16c0-6.21,3.82-9.18,8.2-9.18m0,14.78c2.12,0,4.1-1.66,4.1-5.59,0-4.28-2-5.58-4.1-5.58s-4,1.65-4,5.58c0,4.14,1.94,5.59,4,5.59"/><path class="cls-2" d="M24.37,51.17v0c-.42,0-.83-.07-1.23-.13a18.62,18.62,0,0,1-7.6-2.2l-.68-.34c-.56-.24-1.08-.46-1.31-1l0-.05-1.24-1c-1.16-.92-2.72-2.16-3.82-3.22A16.17,16.17,0,0,1,5.55,39.5a18.43,18.43,0,0,1-1.07-2.39l-.39-1a6.65,6.65,0,0,0-.42-1.06,2.4,2.4,0,0,1-.41-.51A4.48,4.48,0,0,1,3,33.4s-.2-1.22-.29-1.67a21.22,21.22,0,0,1-.56-4.46,13.77,13.77,0,0,1,.77-6.56c.12-.28.6-1.83.78-2.52l-.13-.08.26-.49c.31-.61.6-1.23.89-1.84A19.58,19.58,0,0,1,7,11.8,6.18,6.18,0,0,1,7.71,11a4.34,4.34,0,0,0,.68-.71,2.31,2.31,0,0,0,.28-.5A4.33,4.33,0,0,1,9,9.18a5.84,5.84,0,0,1,1.84-1.51c.28-.16.56-.33.83-.52L13,6.2l-.08.31,1.85-1.16c1.37-.84,2.35-1.45,2.71-1.65a14.28,14.28,0,0,1,5.1-1.45c.76-.09,1.55-.15,2.33-.17l3.32,0A9.72,9.72,0,0,0,30.2,2l.46.05V2A26.15,26.15,0,0,1,44.82,9.66a31.07,31.07,0,0,1,4.06,4.91A14,14,0,0,1,51,19.44a20.29,20.29,0,0,1-.31,8.3,2.24,2.24,0,0,0-.5,1.57c.14,5.37-1.89,8.61-4.36,12a24,24,0,0,1-8.56,7.47c-.13.14-3,1.22-3.67,1.44a10.67,10.67,0,0,1-3.37.71,6,6,0,0,1-.81-.05,30,30,0,0,1-3.47.34h0Z"/><path class="cls-3" d="M30.32,2.56h.23v0A25.51,25.51,0,0,1,44.4,10.06a31.2,31.2,0,0,1,4,4.82,13.46,13.46,0,0,1,2.12,4.92,19.78,19.78,0,0,1-.36,7.77c-.42.3-.53,1.19-.52,1.75.14,5.37-2,8.55-4.24,11.64A23.45,23.45,0,0,1,37,48.26c-.09.07-2.41,1-3.6,1.41a10.26,10.26,0,0,1-3.18.68,6,6,0,0,1-.73,0c-1.13.15-2.32.28-3.58.33l-1,0s0,0-.06,0a16.23,16.23,0,0,1-1.68-.14,19.4,19.4,0,0,1-8.12-2.49c-.38-.17-.85-.31-1-.72l.06,0c.31,0-3.27-2.57-5.29-4.51A15.65,15.65,0,0,1,6.06,39.2a30,30,0,0,1-1.43-3.31,8.4,8.4,0,0,0-.47-1.15c-.1-.15-.29-.28-.37-.46a7.28,7.28,0,0,1-.27-1.46,31.5,31.5,0,0,1-.78-5.56,13.9,13.9,0,0,1,.72-6.33,21.9,21.9,0,0,0,.88-3.06c1-2,1.78-4.09,3.08-5.73.42-.53,1-.91,1.45-1.48.27-.33.38-.79.64-1.14a9.54,9.54,0,0,1,2.54-1.91l0,0a35.61,35.61,0,0,0,3.36-2c1-.63,2-1.23,2.35-1.43a13.62,13.62,0,0,1,4.89-1.38c.74-.09,1.51-.15,2.28-.18h.55c.87,0,1.83.05,2.75.05a10.16,10.16,0,0,0,2.06-.16m0-1.17H30.2l-.13,0a8.68,8.68,0,0,1-1.81.13l-1.38,0-1.37,0h-.59c-.8,0-1.61.09-2.38.18A14.88,14.88,0,0,0,17.23,3.2c-.37.21-1.36.81-2.41,1.46l-.34.21-.63.39L14,4.79,11.37,6.67c-.26.19-.52.34-.79.5a6.2,6.2,0,0,0-2,1.68,4.24,4.24,0,0,0-.42.74A2,2,0,0,1,8,9.94a4.15,4.15,0,0,1-.65.67,6.78,6.78,0,0,0-.82.84,20.44,20.44,0,0,0-2.31,4.09c-.28.6-.57,1.21-.87,1.81l-.51,1,.22.13c-.2.73-.53,1.78-.62,2a14.58,14.58,0,0,0-.83,6.91,21.64,21.64,0,0,0,.57,4.48c.09.44.16.84.22,1.18l.06.45a4.62,4.62,0,0,0,.28,1.27,2,2,0,0,0,.45.62,2.77,2.77,0,0,1,.23.52c.05.16.11.31.17.45l.39,1A18.3,18.3,0,0,0,5,39.79a16.5,16.5,0,0,0,3,3.78c1.13,1.09,2.71,2.35,3.86,3.26.47.38.86.69,1.11.9a2.46,2.46,0,0,0,1.41,1.19c.36.16.58.27.82.4a19.44,19.44,0,0,0,7.84,2.26l.67.08v.07l1.12,0,1.06,0c1.15,0,2.28-.15,3.58-.32a5.69,5.69,0,0,0,.72,0,10.69,10.69,0,0,0,3.4-.69c.17-.06,3-1.06,3.9-1.53h0a24.51,24.51,0,0,0,8.77-7.64c2.53-3.48,4.61-6.81,4.47-12.36a2.11,2.11,0,0,1,.14-.87l.33-.24v-.29a20.63,20.63,0,0,0,.37-8.35l-.06-.24a14.63,14.63,0,0,0-2.22-5.07,31.33,31.33,0,0,0-4.13-5,26.55,26.55,0,0,0-13.52-7.6v-.1l-1-.15h-.37Z"/></svg>